<mxfile host="app.diagrams.net" modified="2021-11-05T21:35:21.714Z" agent="5.0 (Windows NT 10.0; Win64; x64) AppleWebKit/537.36 (KHTML, like Gecko) Chrome/95.0.4638.69 Safari/537.36" etag="d_Wki1dYvR0kG78F6ART" version="15.7.0" type="github">
  <diagram id="nEx--UYVgbSAvsFg95oE" name="Page-1">
    <mxGraphModel dx="882" dy="521" grid="1" gridSize="10" guides="1" tooltips="1" connect="1" arrows="1" fold="1" page="1" pageScale="1" pageWidth="827" pageHeight="1169" math="0" shadow="0">
      <root>
        <mxCell id="0" />
        <mxCell id="1" parent="0" />
        <mxCell id="etUnX1Ghb0rkaaxVV59l-1" value="Server" style="swimlane;fontStyle=1;align=center;verticalAlign=top;childLayout=stackLayout;horizontal=1;startSize=26;horizontalStack=0;resizeParent=1;resizeParentMax=0;resizeLast=0;collapsible=1;marginBottom=0;fillColor=default;strokeColor=default;fontColor=default;" parent="1" vertex="1">
          <mxGeometry x="320" y="60" width="160" height="140" as="geometry" />
        </mxCell>
        <mxCell id="etUnX1Ghb0rkaaxVV59l-2" value="- ServerSocket serverSocket&#xa;- ArrayList&lt;ClientManager&gt; clientsList&#xa;&#xa;&#xa;&#xa;&#xa;&#xa;&#xa;" style="text;strokeColor=default;fillColor=default;align=left;verticalAlign=top;spacingLeft=4;spacingRight=4;overflow=hidden;rotatable=0;points=[[0,0.5],[1,0.5]];portConstraint=eastwest;fontColor=default;" parent="etUnX1Ghb0rkaaxVV59l-1" vertex="1">
          <mxGeometry y="26" width="160" height="44" as="geometry" />
        </mxCell>
        <mxCell id="etUnX1Ghb0rkaaxVV59l-3" value="" style="line;strokeWidth=1;fillColor=default;align=left;verticalAlign=middle;spacingTop=-1;spacingLeft=3;spacingRight=3;rotatable=0;labelPosition=right;points=[];portConstraint=eastwest;strokeColor=default;fontColor=default;" parent="etUnX1Ghb0rkaaxVV59l-1" vertex="1">
          <mxGeometry y="70" width="160" height="8" as="geometry" />
        </mxCell>
        <mxCell id="etUnX1Ghb0rkaaxVV59l-4" value="+ Server(): void&#xa;+ startServer(): void&#xa;+ closeServer(): void" style="text;strokeColor=default;fillColor=default;align=left;verticalAlign=top;spacingLeft=4;spacingRight=4;overflow=hidden;rotatable=0;points=[[0,0.5],[1,0.5]];portConstraint=eastwest;fontColor=default;" parent="etUnX1Ghb0rkaaxVV59l-1" vertex="1">
          <mxGeometry y="78" width="160" height="62" as="geometry" />
        </mxCell>
        <mxCell id="etUnX1Ghb0rkaaxVV59l-5" value="Expression_tree" style="swimlane;fontStyle=1;align=center;verticalAlign=top;childLayout=stackLayout;horizontal=1;startSize=26;horizontalStack=0;resizeParent=1;resizeParentMax=0;resizeLast=0;collapsible=1;marginBottom=0;fontColor=default;strokeColor=default;fillColor=default;" parent="1" vertex="1">
          <mxGeometry x="50" y="222" width="220" height="78" as="geometry" />
        </mxCell>
        <mxCell id="etUnX1Ghb0rkaaxVV59l-6" value="+ String : postfix  &#xa;" style="text;strokeColor=default;fillColor=default;align=left;verticalAlign=top;spacingLeft=4;spacingRight=4;overflow=hidden;rotatable=0;points=[[0,0.5],[1,0.5]];portConstraint=eastwest;fontColor=default;" parent="etUnX1Ghb0rkaaxVV59l-5" vertex="1">
          <mxGeometry y="26" width="220" height="26" as="geometry" />
        </mxCell>
        <mxCell id="etUnX1Ghb0rkaaxVV59l-7" value="+ Crear_árbol(String postfix): Node" style="text;strokeColor=default;fillColor=default;align=left;verticalAlign=top;spacingLeft=4;spacingRight=4;overflow=hidden;rotatable=0;points=[[0,0.5],[1,0.5]];portConstraint=eastwest;fontColor=default;" parent="etUnX1Ghb0rkaaxVV59l-5" vertex="1">
          <mxGeometry y="52" width="220" height="26" as="geometry" />
        </mxCell>
        <mxCell id="etUnX1Ghb0rkaaxVV59l-11" value="Node" style="swimlane;fontStyle=1;align=center;verticalAlign=top;childLayout=stackLayout;horizontal=1;startSize=26;horizontalStack=0;resizeParent=1;resizeParentMax=0;resizeLast=0;collapsible=1;marginBottom=0;labelBackgroundColor=default;fontColor=default;strokeColor=default;fillColor=default;" parent="1" vertex="1">
          <mxGeometry x="120" y="430" width="160" height="140" as="geometry" />
        </mxCell>
        <mxCell id="etUnX1Ghb0rkaaxVV59l-12" value="+ String: data&#xa;+ Node: left&#xa;+Node: right" style="text;strokeColor=default;fillColor=default;align=left;verticalAlign=top;spacingLeft=4;spacingRight=4;overflow=hidden;rotatable=0;points=[[0,0.5],[1,0.5]];portConstraint=eastwest;labelBackgroundColor=default;fontColor=default;" parent="etUnX1Ghb0rkaaxVV59l-11" vertex="1">
          <mxGeometry y="26" width="160" height="54" as="geometry" />
        </mxCell>
        <mxCell id="etUnX1Ghb0rkaaxVV59l-13" value="+ method(type): type&#xa;+ set_left(Node nodo): void&#xa;+ sett_right(Node nodo):void" style="text;strokeColor=default;fillColor=default;align=left;verticalAlign=top;spacingLeft=4;spacingRight=4;overflow=hidden;rotatable=0;points=[[0,0.5],[1,0.5]];portConstraint=eastwest;labelBackgroundColor=default;fontColor=default;" parent="etUnX1Ghb0rkaaxVV59l-11" vertex="1">
          <mxGeometry y="80" width="160" height="60" as="geometry" />
        </mxCell>
        <mxCell id="etUnX1Ghb0rkaaxVV59l-14" style="edgeStyle=orthogonalEdgeStyle;rounded=0;orthogonalLoop=1;jettySize=auto;html=1;fontColor=default;exitX=0.498;exitY=0.966;exitDx=0;exitDy=0;exitPerimeter=0;" parent="1" source="etUnX1Ghb0rkaaxVV59l-7" target="etUnX1Ghb0rkaaxVV59l-12" edge="1">
          <mxGeometry relative="1" as="geometry" />
        </mxCell>
      </root>
    </mxGraphModel>
  </diagram>
</mxfile>
